<svg width="33" height="32" viewBox="0 0 33 32" fill="none" xmlns="http://www.w3.org/2000/svg">
<g clip-path="url(#clip0_2001_3)">
<path d="M32.9342 16.8489L18.1464 31.6546C17.6041 32.1975 17.0586 32.0231 16.9239 31.2664C16.2176 27.2878 14.1489 23.6799 11.0734 21.0631C7.99794 18.4463 4.10793 16.9841 0.0722656 16.9279L16.053 0.924586C16.6544 0.329069 17.1966 0.526478 17.2854 1.37205C17.6997 5.29025 19.4313 8.95127 22.1964 11.7549C24.9614 14.5586 28.5958 16.3385 32.5038 16.8029C32.6451 16.8226 32.7897 16.839 32.9342 16.8489Z" fill="#2EC5B6" stroke="#0B1B2B" stroke-width="0.18" stroke-miterlimit="10"/>
<path d="M29.3784 6.54416C31.1751 6.54416 32.6317 5.08584 32.6317 3.28691C32.6317 1.48798 31.1751 0.0296631 29.3784 0.0296631C27.5816 0.0296631 26.125 1.48798 26.125 3.28691C26.125 5.08584 27.5816 6.54416 29.3784 6.54416Z" fill="#2EC5B6" stroke="#0B1B2B" stroke-width="0.18" stroke-miterlimit="10"/>
</g>
<defs>
<clipPath id="clip0_2001_3">
<rect width="33" height="32" fill="white"/>
</clipPath>
</defs>
</svg>
